<svg xmlns="http://www.w3.org/2000/svg" viewBox="0 0 1200 630" role="img" aria-labelledby="title desc">
  <title id="title">Premier Transmissions social preview</title>
  <desc id="desc">Orange County transmission repair site preview for Premier Transmissions.</desc>
  <defs>
    <linearGradient id="bg" x1="0%" x2="100%" y1="0%" y2="100%">
      <stop offset="0%" stop-color="#151a20"/>
      <stop offset="100%" stop-color="#0d1116"/>
    </linearGradient>
    <linearGradient id="accent" x1="0%" x2="100%" y1="0%" y2="100%">
      <stop offset="0%" stop-color="#f0a660"/>
      <stop offset="100%" stop-color="#b9622e"/>
    </linearGradient>
  </defs>
  <rect width="1200" height="630" fill="url(#bg)"/>
  <circle cx="1040" cy="110" r="190" fill="#d5793d" opacity="0.14"/>
  <circle cx="130" cy="550" r="180" fill="#70808f" opacity="0.12"/>
  <g opacity="0.08" stroke="#ffffff">
    <path d="M0 80H1200"/>
    <path d="M0 160H1200"/>
    <path d="M0 240H1200"/>
    <path d="M0 320H1200"/>
    <path d="M0 400H1200"/>
    <path d="M0 480H1200"/>
    <path d="M0 560H1200"/>
    <path d="M80 0V630"/>
    <path d="M160 0V630"/>
    <path d="M240 0V630"/>
    <path d="M320 0V630"/>
    <path d="M400 0V630"/>
    <path d="M480 0V630"/>
    <path d="M560 0V630"/>
    <path d="M640 0V630"/>
    <path d="M720 0V630"/>
    <path d="M800 0V630"/>
    <path d="M880 0V630"/>
    <path d="M960 0V630"/>
    <path d="M1040 0V630"/>
    <path d="M1120 0V630"/>
  </g>
  <rect x="72" y="72" width="1056" height="486" rx="34" fill="#11161b" stroke="#ffffff" stroke-opacity="0.12"/>
  <rect x="118" y="118" width="126" height="126" rx="30" fill="url(#accent)"/>
  <text x="181" y="196" text-anchor="middle" font-size="54" font-family="Trebuchet MS, Segoe UI, sans-serif" font-weight="700" fill="#1a120c">PT</text>
  <text x="118" y="296" font-size="22" font-family="Trebuchet MS, Segoe UI, sans-serif" letter-spacing="5" fill="#f0a660">TRANSMISSION REPAIR IN ORANGE, CA</text>
  <text x="118" y="392" font-size="72" font-family="Georgia, serif" font-weight="700" fill="#f6efe3">Premier</text>
  <text x="118" y="474" font-size="72" font-family="Georgia, serif" font-weight="700" fill="#f6efe3">Transmissions</text>
  <text x="118" y="528" font-size="30" font-family="Trebuchet MS, Segoe UI, sans-serif" fill="#c4c0b8">(714) 532-9895  |  808 W Angus Ave Ste D, Orange, CA</text>
</svg>
